# xmcd CD database file
#
# Track frame offsets:
#	150
#	28485
#	61450
#	87530
#	122013
#	156273
#	190968
#	228325
#	255851
#
# Disc length: 3910 seconds
#
# Revision: 0
# Processed by: cddbd v1.5.2PL0 Copyright (c) Steve Scherf et al.
# Submitted via: CDex 1.51
#
DISCID=770f4409
DTITLE=Kevin Kendle - The Leaves Of Paradise
DYEAR=2012
DGENRE=New Age
TTITLE0=Arrival In Eden
TTITLE1=Dimensional Oasis
TTITLE2=Pool Of Tranquility
TTITLE3=Forest Of Enlightenment
TTITLE4=Soul Horizon
TTITLE5=AboveThe Zenith
TTITLE6=The Tree Of Life
TTITLE7=Timeless Valley
TTITLE8=Of The One
EXTD=YEAR: 2012
EXTT0=
EXTT1=
EXTT2=
EXTT3=
EXTT4=
EXTT5=
EXTT6=
EXTT7=
EXTT8=
PLAYORDER=
